# AST/ASF file generated using VICON BodyLanguage
# -----------------------------------------------
:version 1.10
:name VICON
:units
  mass 1.0
  length 0.45
  angle deg
:documentation
   .ast/.asf automatically generated from VICON data using
   VICON BodyBuilder and BodyLanguage model FoxedUp or BRILLIANT.MOD
:root
   order TX TY TZ RX RY RZ
   axis XYZ
   position 0 0 0  
   orientation 0 -0 0 
:bonedata
  begin
     id 1 
     name lhipjoint
     direction 0.500677 -0.737119 0.453848 
     length 2.34727 
     axis 0 -0 0  XYZ
  end
  begin
     id 2 
     name lfemur
     direction 0.34202 -0.939693 0  
     length 7.53653  
     axis 0 -0 20  XYZ
    dof rx ry rz
    limits (-160.0 20.0)
           (-70.0 70.0)
           (-60.0 70.0)
  end
  begin
     id 3 
     name ltibia
     direction 0.34202 -0.939693 0   
     length 6.85572   
     axis 0 -0 20   XYZ
    dof rx
    limits (-10.0 170.0)
  end
  begin
     id 4 
     name lfoot
     direction 0.155313 -0.426718 0.890949   
     length 2.18324   
     axis -90 -1.13533e-015 20   XYZ
    dof rx rz
    limits (-45.0 90.0)
           (-70.0 20.0)
  end
  begin
     id 5 
     name ltoes
     direction 1.53474e-011 -4.21647e-011 1   
     length 1.06748   
     axis -90 -1.13533e-015 20   XYZ
    dof rx
    limits (-90.0 20.0)
  end
  begin
     id 6 
     name rhipjoint
     direction -0.632471 -0.659587 0.406111   
     length 2.62319  
     axis 0 -0 0  XYZ 
  end
  begin
     id 7 
     name rfemur
     direction -0.34202 -0.939693 0   
     length 7.21735   
     axis 0 -0 -20   XYZ
    dof rx ry rz
    limits (-160.0 20.0)
           (-70.0 70.0)
           (-70.0 60.0)
  end
  begin
     id 8 
     name rtibia
     direction -0.34202 -0.939693 0   
     length 7.02558   
     axis 0 -0 -20   XYZ
    dof rx
    limits (-10.0 170.0)
 end
 begin
     id 9 
     name rfoot
     direction -0.16057 -0.441164 0.882945   
     length 2.10014  
     axis -90 1.13533e-015 -20   XYZ
    dof rx rz
    limits (-45.0 90.0)
           (-20.0 70.0)
  end
  begin
     id 10 
     name rtoes
     direction -1.53553e-011 -4.2192e-011 1   
     length 1.02554   
     axis -90 1.13533e-015 -20   XYZ
    dof rx
    limits (-90.0 20.0)
  end
  begin
     id 11 
     name lowerback
     direction 0.0401429 0.998861 -0.0258085   
     length 1.80848   
     axis 0 -0 0   XYZ
    dof rx ry rz
    limits (-20.0 45.0)
           (-30.0 30.0)
           (-30.0 30.0)
  end
  begin
     id 12 
     name upperback
     direction -0.0130978 0.999914 -0.000352645   
     length 1.8116   
     axis 0 -0 0   XYZ
    dof rx ry rz
    limits (-20.0 45.0)
           (-30.0 30.0)
           (-30.0 30.0)
  end
  begin
     id 13 
     name thorax
     direction -0.0300198 0.999453 0.0138573   
     length 1.81778   
     axis 0 -0 0   XYZ
    dof rx ry rz
    limits (-20.0 45.0)
           (-30.0 30.0)
           (-30.0 30.0)
  end
  begin
     id 14 
     name lowerneck
     direction -0.0401726 0.999191 -0.00173647   
     length 2.10594   
     axis 0 -0 0   XYZ
    dof rx ry rz
    limits (-20.0 45.0)
           (-30.0 30.0)
           (-30.0 30.0)
  end
  begin
     id 15 
     name upperneck
     direction 0.0119835 0.998501 0.0534085   
     length 2.07325   
     axis 0 -0 0   XYZ
    dof rx ry rz
    limits (-20.0 45.0)
           (-30.0 30.0)
           (-30.0 30.0)
  end
  begin
     id 16
     name head
     direction 0.00628309 0.999826 0.0175921  
     length 2.15096  
     axis 0 -0 0   XYZ
    dof rx ry rz
    limits (-20.0 45.0)
           (-30.0 30.0)
           (-30.0 30.0)
  end
  begin
     id 17 
     name lclavicle
     direction 0.895501 0.429681 -0.115981  
     length 4.18092  
     axis 0 -0 0   XYZ
    dof ry rz
    limits (-20.0 10.0)
           (0.0 20.0)
  end
  begin
     id 18 
     name lhumerus
     direction 1 -4.48961e-011 -3.38433e-028   
     length 5.77237   
     axis 180 -30 -90   XYZ
    dof rx ry rz
    limits (-60.0 90.0)
           (-90.0 90.0)
           (-90.0 90.0)
  end
  begin
     id 19
     name lradius
     direction 1 -4.4901e-011 1.11983e-026   
     length 2.91878   
     axis 180 -30 -90   XYZ
    dof rx
    limits (-10.0 170.0)
  end
  begin
     id 20
     name lwrist
     direction 1 -4.48934e-011 1.88176e-026   
     length 1.45939   
     axis -1.23311e-014 90 90   XYZ
    dof ry
    limits (-180.0 0.0)
 end
  begin
     id 21 
     name lhand
     direction 1 -4.4895e-011 3.76352e-026   
     length 1.06566   
     axis -2.40147e-014 90 90   XYZ
    dof rx rz
    limits (-90.0 90.0)
           (-45.0 45.0)
  end
  begin
     id 22 
     name lfingers
     direction 1 -4.49005e-011 7.52705e-026   
     length 0.859162   
     axis -4.80295e-014 90 90   XYZ
    dof rx
    limits (0.0 90.0)
  end
  begin
     id 23
     name lthumb
     direction 0.707107 -6.34885e-011 0.707107   
     length 1.23359   
     axis -90 45 -9.86935e-015   XYZ
    dof rx rz
    limits (-45.0 45.0)
           (-45.0 45.0)
  end
  begin
     id 24 
     name rclavicle
     direction -0.91006 0.40451 -0.0903492   
     length 4.23293  
     axis 0 -0 0   XYZ 
    dof ry rz
    limits (-10.0 20.0)
           (-20.0 0.0)
  end
  begin
     id 25 
     name rhumerus
     direction -1 -4.4897e-011 1.7415e-027  
     length 5.49854   
     axis 180 30 90   XYZ
    dof rx ry rz
    limits (-90.0 60.0)
           (-90.0 90.0)
           (-90.0 90.0)
  end
  begin
     id 26 
     name rradius
     direction -1 -4.48963e-011 1.21259e-026   
     length 3.1186   
     axis 180 30 90   XYZ
    dof rx
    limits (-10.0 170.0)
  end
  begin
     id 27 
     name rwrist
     direction -1 -4.48967e-011 1.88176e-026   
     length 1.5593   
     axis -1.23311e-014 -90 -90   XYZ
    dof ry
    limits (-180.0 0.0)
  end
  begin
     id 28
     name rhand
     direction -1 -4.4895e-011 3.76352e-026   
     length 0.71207   
     axis -2.40147e-014 -90 -90   XYZ
    dof rx rz
    limits (-90.0 90.0)
           (-45.0 45.0)
  end
  begin
     id 29
     name rfingers
     direction -1 -4.49005e-011 7.52705e-026   
     length 0.574089   
     axis -4.80295e-014 -90 -90   XYZ
    dof rx
    limits (0.0 90.0)
  end
  begin
     id 30
     name rthumb
     direction -0.707107 -6.34982e-011 0.707107   
     length 0.824281   
     axis -90 -45 9.86935e-015   XYZ
    dof rx rz
    limits (-45.0 45.0)
           (-45.0 45.0)
  end
:hierarchy
  begin
    root lhipjoint rhipjoint lowerback
    lhipjoint lfemur
    lfemur ltibia
    ltibia lfoot
    lfoot ltoes
    rhipjoint rfemur
    rfemur rtibia
    rtibia rfoot
    rfoot rtoes
    lowerback upperback
    upperback thorax
    thorax lowerneck lclavicle rclavicle
    lowerneck upperneck
    upperneck head
    lclavicle lhumerus
    lhumerus lradius
    lradius lwrist
    lwrist lhand lthumb
    lhand lfingers
    rclavicle rhumerus
    rhumerus rradius
    rradius rwrist
    rwrist rhand rthumb
    rhand rfingers
  end

#!OML:ASF C:\ViconDB\ViconDB\414\Spring2016\042216\male.ASF
:FULLY-SPECIFIED
:DEGREES
64
root 2.16571 17.6398 9.27382 -175.077 73.6474 -179.456
lowerback -1.37866 -1.6391 3.77556
upperback -0.108618 -2.23817 -0.736367
thorax 0.487089 -1.1111 -2.90807
lowerneck 1.474 11.6609 0.707651
upperneck -3.11791 15.5048 -8.76103
head -0.432669 7.89825 -2.91796
rclavicle -1.13991e-015 -6.4605e-015
rhumerus -31.0623 -1.31427 -92.7376
rradius 28.6155
rwrist 27.5818
rhand 12.6915 -18.9749
rfingers 7.12502
rthumb 37.6744 -44.862
lclavicle -1.13991e-015 -6.4605e-015
lhumerus -35.5515 14.7281 86.6261
lradius 32.9
lwrist -16.4465
lhand -3.2538 14.1325
lfingers 7.12502
lthumb 22.4704 42.8452
rfemur -1.63355 8.32772 15.8833
rtibia 6.54493
rfoot -10.9309 -5.27967
rtoes -8.05509
lfemur -7.35015 -7.32709 -14.9329
ltibia 14.5401
lfoot -17.902 16.6004
ltoes -15.5995
65
root 2.16039 17.6438 9.27131 -174.792 73.6543 -179.38
lowerback -1.31535 -1.69523 3.77368
upperback -0.115013 -2.31033 -0.756598
thorax 0.438644 -1.14833 -2.9263
lowerneck 1.57459 11.6899 0.837413
upperneck -3.4205 15.5221 -8.75425
head -0.535587 7.91405 -2.9577
rclavicle 3.66944e-014 7.95139e-015
rhumerus -31.0591 -0.229963 -93.0884
rradius 28.5496
rwrist 26.2192
rhand 12.9524 -18.95
rfingers 7.12502
rthumb 37.9209 -44.7707
lclavicle 3.66944e-014 7.95139e-015
lhumerus -35.6889 14.3976 86.5447
lradius 33.1561
lwrist -16.0859
lhand -3.20956 13.9859
lfingers 7.12502
lthumb 22.5128 42.6935
rfemur -1.8468 8.31937 15.8495
rtibia 6.4179
rfoot -10.8483 -5.31917
rtoes -8.29942
lfemur -7.65699 -7.15338 -14.8947
ltibia 14.6515
lfoot -18.0136 16.4733
ltoes -15.4794
66
root 2.15478 17.6454 9.26753 -174.273 73.669 -179.075
lowerback -1.23597 -1.73104 3.84439
upperback -0.137945 -2.35566 -0.728985
thorax 0.365364 -1.17277 -2.93469
lowerneck 1.69835 11.7019 0.845713
upperneck -3.73117 15.5146 -8.71548
head -0.658775 7.91923 -2.97178
rclavicle 1.36913e-014 3.57812e-015
rhumerus -31.0323 -0.412331 -92.8558
rradius 28.2675
rwrist 26.2272
rhand 13.5406 -18.5273
rfingers 7.12502
rthumb 38.4762 -44.1954
lclavicle 1.36913e-014 3.57812e-015
lhumerus -35.6977 14.0095 86.5441
lradius 33.2676
lwrist -15.4775
lhand -3.19676 14.0392
lfingers 7.12502
lthumb 22.5251 42.7453
rfemur -2.08498 8.32337 15.8695
rtibia 6.30973
rfoot -10.7894 -5.34423
rtoes -8.49377
lfemur -7.95769 -6.89507 -14.7953
ltibia 14.7579
lfoot -18.0293 16.2756
ltoes -15.6104
67
root 2.15026 17.6514 9.26489 -173.934 73.6985 -178.944
lowerback -1.13849 -1.74045 3.85214
upperback -0.121145 -2.36483 -0.707918
thorax 0.327844 -1.1779 -2.91437
lowerneck 1.61519 11.6995 0.859539
upperneck -3.90553 15.5012 -8.68136
head -0.702773 7.91427 -2.9656
rclavicle -2.84138e-014 1.27222e-014
rhumerus -30.9478 -0.773503 -92.4695
rradius 27.8269
rwrist 26.5807
rhand 13.606 -18.3766
rfingers 7.12502
rthumb 38.5379 -44.0274
lclavicle -2.84138e-014 1.27222e-014
lhumerus -35.6934 13.7355 86.4788
lradius 33.3928
lwrist -14.8321
lhand -2.82157 14.0221
lfingers 7.12502
lthumb 22.8852 42.6841
rfemur -2.29352 8.33898 15.8486
rtibia 6.19767
rfoot -10.7879 -5.34238
rtoes -8.40351
lfemur -8.27575 -6.85121 -14.7342
ltibia 14.8634
lfoot -18.1979 16.2384
ltoes -15.2248
68
root 2.14563 17.6551 9.26072 -173.745 73.69 -178.938
lowerback -1.02061 -1.75676 3.85741
upperback -0.119501 -2.38199 -0.695416
thorax 0.262435 -1.18784 -2.90044
lowerneck 1.70197 11.6951 0.688806
upperneck -4.198 15.4708 -8.49349
head -0.841584 7.90633 -2.90279
rclavicle -1.38342e-014 -9.24349e-015
rhumerus -30.9351 -1.07603 -91.9725
rradius 27.2421
rwrist 27.203
rhand 13.8984 -17.8759
rfingers 7.12502
rthumb 38.8137 -43.449
lclavicle -1.38342e-014 -9.24349e-015
lhumerus -35.7694 13.2611 86.5836
lradius 33.4979
lwrist -14.0644
lhand -2.97517 14.3895
lfingers 7.12502
lthumb 22.7378 43.0697
rfemur -2.41689 8.31223 15.7712
rtibia 5.98876
rfoot -10.7204 -5.31956
rtoes -8.34634
lfemur -8.56082 -6.80056 -14.7271
ltibia 14.997
lfoot -18.2647 16.2054
ltoes -15.1707
69
root 2.14064 17.6593 9.25773 -173.472 73.6594 -178.894
lowerback -0.937743 -1.78239 3.87552
upperback -0.105556 -2.41329 -0.696694
thorax 0.227049 -1.20403 -2.90939
lowerneck 1.71188 11.6853 0.633086
upperneck -4.4955 15.4381 -8.38234
head -0.953659 7.89577 -2.87614
rclavicle 3.19608e-014 -1.04362e-014
rhumerus -30.8801 -1.85688 -91.3237
rradius 26.621
rwrist 28.291
rhand 14.0315 -17.8918
rfingers 7.12502
rthumb 38.9392 -43.4292
lclavicle 3.19608e-014 -1.04362e-014
lhumerus -35.8384 13.1268 86.3804
lradius 33.5158
lwrist -13.2602
lhand -2.47807 14.4631
lfingers 7.12502
lthumb 23.2148 43.084
rfemur -2.52288 8.26049 15.6995
rtibia 5.64519
rfoot -10.5742 -5.2959
rtoes -8.49789
lfemur -8.91655 -6.70195 -14.6969
ltibia 15.1627
lfoot -18.2882 16.1065
ltoes -15.3061
70
root 2.13557 17.6632 9.2552 -172.791 73.642 -178.45
lowerback -0.818495 -1.81556 3.90376
upperback -0.126212 -2.45264 -0.585698
thorax 0.139592 -1.22569 -2.80647
lowerneck 1.75712 11.697 0.427451
upperneck -4.79667 15.4317 -8.22784
head -1.08696 7.90089 -2.81655
rclavicle 3.82536e-014 -6.01324e-015
rhumerus -31.0341 -2.03646 -90.6795
rradius 26.1803
rwrist 29.1182
rhand 14.495 -18.1469
rfingers 7.12502
rthumb 39.3761 -43.5581
lclavicle 3.82536e-014 -6.01324e-015
lhumerus -36.0057 13.0319 86.2644
lradius 33.579
lwrist -12.5395
lhand -1.97736 14.6308
lfingers 7.12502
lthumb 23.6951 43.1903
rfemur -2.65646 8.23456 15.7492
rtibia 5.2972
rfoot -10.4309 -5.27908
rtoes -8.40618
lfemur -9.29296 -6.67297 -14.5329
ltibia 15.329
lfoot -18.3356 16.0844
ltoes -15.3553
